# xmcd
#
# Track frame offsets:
# 150
# 18797
# 31410
# 46462
# 65437
# 85397
# 106110
# 128372
# 155287
# 172885
# 185612
# 202662
# 221487
#
# Disc length: 3277 seconds
#
#
# Revision: 0
# Processed by: cddbd v1.5.1PL0 Copyright (c) Steve Scherf et al.
# Submitted via: FreeRIP 2.51 
#
DISCID=9a0ccb0d
DTITLE=BluesAholics - Wyssberg
DYEAR=1999
DGENRE=Blues
TTITLE0=Leos Beiz
TTITLE1=Hallo, Guete Morge
TTITLE2=Boiled Rabbit
TTITLE3=Pissoir (Wirsch alt)
TTITLE4=I'm still here
TTITLE5=Lass mi nid elei
TTITLE6=Wäge rot
TTITLE7=Fog is lifting
TTITLE8=I dine Auge
TTITLE9=Fool Moon Boogie
TTITLE10=Nimm mi mit
TTITLE11=Für d'Lara
TTITLE12=Bonus Track
EXTD=YEAR:1999
EXTT0=
EXTT1=
EXTT2=
EXTT3=
EXTT4=
EXTT5=
EXTT6=
EXTT7=
EXTT8=
EXTT9=
EXTT10=
EXTT11=
EXTT12=
PLAYORDER=
